<svg xmlns="http://www.w3.org/2000/svg" viewBox="0 0 640 480">
  <rect width="640" height="480" fill="#f8fafc"/>
  <g transform="translate(90,60)">
    <rect x="0" y="0" width="460" height="300" rx="16" fill="#ffffff" stroke="#cbd5e1" stroke-width="2"/>
    <rect x="24" y="24" width="412" height="40" rx="12" fill="#f1f5f9"/>
    <rect x="24" y="84" width="180" height="140" rx="12" fill="#eef2ff" stroke="#c7d2fe"/>
    <rect x="224" y="84" width="212" height="18" rx="9" fill="#e2e8f0"/>
    <rect x="224" y="112" width="172" height="18" rx="9" fill="#e2e8f0"/>
    <rect x="224" y="140" width="196" height="18" rx="9" fill="#e2e8f0"/>
    <rect x="224" y="168" width="160" height="18" rx="9" fill="#e2e8f0"/>
    <rect x="24" y="240" width="412" height="24" rx="12" fill="#f1f5f9"/>
    <g transform="translate(60,110)">
      <rect x="0" y="0" width="140" height="16" rx="8" fill="#a5b4fc"/>
      <rect x="0" y="28" width="120" height="16" rx="8" fill="#c7d2fe"/>
      <rect x="0" y="56" width="100" height="16" rx="8" fill="#e0e7ff"/>
    </g>
  </g>
</svg>
