<svg xmlns="http://www.w3.org/2000/svg" viewBox="0 0 640 480">
  <defs>
    <linearGradient id="g1" x1="0" y1="0" x2="1" y2="1">
      <stop offset="0" stop-color="#4f46e5"/>
      <stop offset="1" stop-color="#a855f7"/>
    </linearGradient>
  </defs>
  <rect x="0" y="0" width="640" height="480" fill="#f8fafc"/>
  <g transform="translate(100,60)">
    <rect x="0" y="0" width="440" height="280" rx="16" fill="#ffffff" stroke="#cbd5e1" stroke-width="2"/>
    <rect x="0" y="0" width="440" height="40" rx="16" fill="#f1f5f9"/>
    <circle cx="20" cy="20" r="6" fill="#ef4444"/>
    <circle cx="40" cy="20" r="6" fill="#f59e0b"/>
    <circle cx="60" cy="20" r="6" fill="#22c55e"/>
    <rect x="20" y="60" width="180" height="14" rx="7" fill="#e2e8f0"/>
    <rect x="20" y="84" width="300" height="14" rx="7" fill="#e2e8f0"/>
    <rect x="20" y="108" width="260" height="14" rx="7" fill="#e2e8f0"/>
    <rect x="20" y="160" width="120" height="80" rx="12" fill="url(#g1)"/>
    <path d="M60 200 l20 -20 l-20 -20 M100 160 l-20 20 l20 20" stroke="#fff" stroke-width="6" fill="none" stroke-linecap="round" stroke-linejoin="round"/>
    <rect x="160" y="160" width="240" height="18" rx="9" fill="#e2e8f0"/>
    <rect x="160" y="186" width="200" height="18" rx="9" fill="#e2e8f0"/>
    <rect x="160" y="212" width="220" height="18" rx="9" fill="#e2e8f0"/>
  </g>
</svg>
