<svg xmlns="http://www.w3.org/2000/svg" viewBox="0 0 603.33 182.5">
  <path fill="#FF9900" d="M374.3 141.5c-47.5 35-116.3 53.7-175.6 53.7-83.1 0-158-30.7-214.6-81.8-4.4-4-0.5-9.5 4.9-6.4 60.6 35.3 135.6 56.5 213.1 56.5 52.3 0 109.7-10.8 162.5-33.3 8-3.4 14.7 5.2 6.7 11.3z"/>
  <path fill="#FF9900" d="M388.8 125.3c-6.1-7.8-40.3-3.7-55.6-1.9-4.7 0.6-5.4-3.5-1.2-6.4 27.2-19.2 71.9-13.6 77.1-7.2 5.2 6.5-1.4 51.4-27 72.9-3.9 3.3-7.7 1.5-5.9-2.8 5.7-14.3 18.5-46.4 12.6-54.6z"/>
  <path fill="#221F1F" d="M348.5 32.3v-8.9c0-1.4 1-2.3 2.3-2.3h41.4c1.3 0 2.4 0.9 2.4 2.3v7.6c0 1.3-1.1 3-3 5.7l-21.5 30.7c8 -0.2 16.4 1 23.7 5 1.6 0.9 2.1 2.2 2.2 3.5v9.5c0 1.3-1.5 2.9-3 2.1-12.6-6.6-29.3-7.3-43.2 0.1-1.5 0.8-3-0.8-3-2.1v-9c0-1.5 0-4 1.5-6.3l24.9-35.7h-21.6c-1.3 0-2.4-0.9-2.4-2.3l0.3 0.1z"/>
  <path fill="#221F1F" d="M127.3 89.5h-12.1c-1.2-0.1-2.1-1-2.2-2.1V23.6c0-1.3 1.1-2.3 2.4-2.3h11.3c1.2 0.1 2.1 1 2.2 2.2v8.4h0.2c3.2-8.2 9.3-12.1 17.5-12.1 8.3 0 13.5 3.9 17.2 12.1 3.2-8.2 10.5-12.1 18.4-12.1 5.6 0 11.7 2.3 15.4 7.5 4.2 5.7 3.3 14 3.3 21.3v38.7c0 1.3-1.1 2.3-2.4 2.3h-12.1c-1.2-0.1-2.2-1.1-2.2-2.3V53.8c0-2.9 0.3-10-0.4-12.7-1-4.3-4.1-5.5-8.1-5.5-3.3 0-6.8 2.2-8.2 5.8-1.4 3.5-1.3 9.5-1.3 13.4v32.5c0 1.3-1.1 2.3-2.4 2.3h-12.1c-1.2-0.1-2.2-1.1-2.2-2.3l0-33.2c0-7-1.1-17.2-9.3-17.2-8.3 0-8 9.5-8 17.2v33.2c0 1.3-1.1 2.3-2.4 2.3z"/>
  <path fill="#221F1F" d="M431.3 19.7c18 0 27.7 15.4 27.7 35 0 18.9-10.7 34-27.7 34-17.6 0-27.2-15.4-27.2-34.6 0-19.4 9.8-34.4 27.2-34.4zm0.1 12.6c-8.9 0-9.4 12.1-9.4 19.6 0 7.6-0.1 23.6 9.3 23.6 9.3 0 9.7-13 9.7-20.9 0-5.2-0.2-11.4-1.5-16.3-1.1-4.3-3.3-6-7.1-6l-1 0z"/>
  <path fill="#221F1F" d="M481.5 89.5h-12.1c-1.2-0.1-2.2-1.1-2.2-2.3V23.6c0-1.3 1.1-2.3 2.4-2.3h11.3c1.1 0.1 2 0.8 2.2 1.9v9.9h0.2c3.4-8.9 8.2-13.3 17.2-13.3 5.7 0 11.2 2.1 14.8 7.6 3.3 5.1 3.3 13.7 3.3 19.8v40.1c-0.1 1.2-1.1 2.1-2.4 2.1h-12.2c-1.1-0.1-2-0.9-2.1-2.1V52.9c0-6.9 0.8-17-7.7-17-3 0-5.7 2-7.1 5.1-1.7 3.9-2 7.7-2 12v34.2c0 1.3-1.1 2.3-2.4 2.3l-0.2 0z"/>
  <path fill="#221F1F" d="M283.7 54.9c0 7.9 0.2 14.5-3.8 21.5-3.3 5.7-8.5 9.2-14.3 9.2-7.9 0-12.5-6-12.5-14.9 0-17.5 15.7-20.7 30.6-20.7v4.9zm12.2 29.5c-0.8 0.7-2 0.8-2.9 0.3-4.1-3.4-4.8-5-7.1-8.3-6.8 7-11.6 9.1-20.4 9.1-10.4 0-18.5-6.4-18.5-19.3 0-10 5.4-16.9 13.2-20.2 6.8-2.9 16.2-3.4 23.4-4.2v-1.6c0-2.9 0.2-6.3-1.5-8.8-1.5-2.2-4.4-3.1-7-3.1-4.8 0-9 2.5-10.1 7.6-0.2 1.1-1 2.2-2.2 2.3l-11.7-1.3c-1-0.2-2.2-1.1-1.9-2.7 2.8-14.8 16.2-19.3 28.2-19.3 6.1 0 14.1 1.6 18.9 6.3 6.1 5.8 5.5 13.5 5.5 21.9v19.8c0 6 2.5 8.6 4.8 11.8 0.8 1.1 1 2.5-0.1 3.3-2.8 2.3-7.7 6.6-10.4 9-0.3 0.2-0.7 0.3-1.1 0.3l-0.1-0.1z"/>
  <path fill="#221F1F" d="M52.4 54.9c0 7.9 0.2 14.5-3.8 21.5-3.3 5.7-8.5 9.2-14.3 9.2-7.9 0-12.5-6-12.5-14.9 0-17.5 15.7-20.7 30.6-20.7v4.9zm12.2 29.5c-0.8 0.7-2 0.8-2.9 0.3-4.1-3.4-4.8-5-7.1-8.3-6.8 7-11.6 9.1-20.4 9.1-10.4 0-18.5-6.4-18.5-19.3 0-10 5.4-16.9 13.2-20.2 6.8-2.9 16.2-3.4 23.4-4.2v-1.6c0-2.9 0.2-6.3-1.5-8.8-1.5-2.2-4.4-3.1-7-3.1-4.8 0-9 2.5-10.1 7.6-0.2 1.1-1 2.2-2.2 2.3l-11.7-1.3c-1-0.2-2.2-1.1-1.9-2.7 2.8-14.8 16.2-19.3 28.2-19.3 6.1 0 14.1 1.6 18.9 6.3 6.1 5.8 5.5 13.5 5.5 21.9v19.8c0 6 2.5 8.6 4.8 11.8 0.8 1.1 1 2.5-0.1 3.3-2.8 2.3-7.7 6.6-10.4 9-0.3 0.2-0.7 0.3-1.1 0.3l-0.1-0.1z"/>
</svg>
