<svg xmlns="http://www.w3.org/2000/svg" viewBox="0 0 512 149">
  <path fill="#FF7A59" d="M89.8 105.2c-5.5 3.7-12.2 5.9-19.4 5.9-18.8 0-34.1-15.3-34.1-34.1s15.3-34.1 34.1-34.1c7.2 0 13.9 2.2 19.4 5.9V28.3c0-1.9 1.5-3.4 3.4-3.4h13.5c1.9 0 3.4 1.5 3.4 3.4v92.5c0 1.9-1.5 3.4-3.4 3.4H93.2c-1.9 0-3.4-1.5-3.4-3.4v-15.6zm0-28.2c0-10.6-8.6-19.2-19.2-19.2s-19.2 8.6-19.2 19.2 8.6 19.2 19.2 19.2 19.2-8.6 19.2-19.2z"/>
  <path fill="#FF7A59" d="M197.9 77c0 24.3-19.7 44-44 44s-44-19.7-44-44 19.7-44 44-44 44 19.7 44 44zm-20.2 0c0-13.1-10.7-23.8-23.8-23.8s-23.8 10.7-23.8 23.8 10.7 23.8 23.8 23.8 23.8-10.7 23.8-23.8z"/>
  <path fill="#FF7A59" d="M254.8 42.8c-7.2 0-13.9 2.2-19.4 5.9V28.3c0-1.9-1.5-3.4-3.4-3.4h-13.5c-1.9 0-3.4 1.5-3.4 3.4v92.5c0 1.9 1.5 3.4 3.4 3.4h13.5c1.9 0 3.4-1.5 3.4-3.4v-15.6c5.5 3.7 12.2 5.9 19.4 5.9 18.8 0 34.1-15.3 34.1-34.1s-15.3-34.2-34.1-34.2zm-3.2 48.4c-10.6 0-19.2-8.6-19.2-19.2s8.6-19.2 19.2-19.2 19.2 8.6 19.2 19.2-8.6 19.2-19.2 19.2z"/>
  <path fill="#FF7A59" d="M366.8 55.1c-5.9-7.9-15.3-12.3-25.7-12.3-7.2 0-13.9 2.2-19.4 5.9-5.5-3.7-12.2-5.9-19.4-5.9-18.8 0-34.1 15.3-34.1 34.1s15.3 34.1 34.1 34.1c7.2 0 13.9-2.2 19.4-5.9 5.5 3.7 12.2 5.9 19.4 5.9 10.4 0 19.8-4.4 25.7-12.3 5.9 7.9 15.3 12.3 25.7 12.3 18.8 0 34.1-15.3 34.1-34.1s-15.3-34.1-34.1-34.1c-10.4 0-19.8 4.4-25.7 12.3zm-64.5 36.1c-10.6 0-19.2-8.6-19.2-19.2s8.6-19.2 19.2-19.2 19.2 8.6 19.2 19.2-8.6 19.2-19.2 19.2zm64.5 0c-10.6 0-19.2-8.6-19.2-19.2s8.6-19.2 19.2-19.2 19.2 8.6 19.2 19.2-8.6 19.2-19.2 19.2z"/>
  <path fill="#FF7A59" d="M478.5 42.8c-10.4 0-19.8 4.4-25.7 12.3V46.2c0-1.9-1.5-3.4-3.4-3.4h-13.5c-1.9 0-3.4 1.5-3.4 3.4v74.6c0 1.9 1.5 3.4 3.4 3.4h13.5c1.9 0 3.4-1.5 3.4-3.4V77c0-10.6 8.6-19.2 19.2-19.2s19.2 8.6 19.2 19.2v43.8c0 1.9 1.5 3.4 3.4 3.4h13.5c1.9 0 3.4-1.5 3.4-3.4V77c0-18.8-15.3-34.2-33.5-34.2z"/>
  <circle fill="#FF7A59" cx="70.4" cy="14.9" r="14.9"/>
</svg>
