<svg xmlns="http://www.w3.org/2000/svg" viewBox="0 0 512 512">
  <path fill="#0081FB" d="M504.73 216.49c-10.62-45.15-41.87-84.2-85.85-107.18-43.98-22.98-95.55-27.87-141.58-13.42-46.03 14.45-85.46 47.03-108.32 89.48-22.86 42.45-27.68 92.28-13.23 136.84 14.45 44.56 47.03 82.71 89.48 104.57 42.45 21.86 92.28 26.68 136.84 12.23 44.56-14.45 82.71-47.03 104.57-89.48 21.86-42.45 26.68-92.28 12.23-136.84l5.86-1.2zm-90.48 177.68c-18.48 35.85-52.23 62.97-92.69 74.49-40.46 11.52-84.03 7.37-119.88-11.39-35.85-18.76-62.97-52.51-74.49-92.97-11.52-40.46-7.37-84.03 11.39-119.88 18.76-35.85 52.51-62.97 92.97-74.49 40.46-11.52 84.03-7.37 119.88 11.39 35.85 18.76 62.97 52.51 74.49 92.97 11.52 40.46 7.37 84.03-11.39 119.88h-.28z"/>
  <path fill="#0081FB" d="M262.03 118.46c-26.03 0-51.42 7.62-73.26 21.98-21.84 14.36-38.91 34.79-49.28 58.92-10.37 24.13-13.42 50.88-8.79 77.17 4.63 26.29 16.36 50.88 33.84 70.93 17.48 20.05 40.17 35.28 65.45 43.98 25.28 8.7 52.51 10.37 78.52 4.82 26.01-5.55 50.02-18.48 69.26-37.26 19.24-18.78 33.28-42.45 40.46-68.28 7.18-25.83 7.18-53.34 0-79.17-7.18-25.83-21.22-49.5-40.46-68.28-19.24-18.78-43.25-31.71-69.26-37.26-26.01-5.55-53.24-3.88-78.52 4.82-25.28 8.7-47.97 23.93-65.45 43.98-17.48 20.05-29.21 44.64-33.84 70.93-4.63 26.29-1.58 53.04 8.79 77.17 10.37 24.13 27.44 44.56 49.28 58.92 21.84 14.36 47.23 21.98 73.26 21.98z"/>
</svg>
