<svg xmlns="http://www.w3.org/2000/svg" viewBox="0 0 1024 276.7">
  <path fill="#E50914" d="M140.8 0L0 276.7h44.5L81.9 178l37.1 98.7h44.5L140.8 0z"/>
  <path fill="#E50914" d="M140.8 0v98.7L81.9 178V0H140.8z"/>
  <path fill="#E50914" d="M140.8 178l37.1 98.7V0L140.8 178z"/>
  <path fill="#E50914" d="M254.3 25.3h108.1v35.7H254.3V25.3zm0 71.4h108.1v35.7H254.3V96.7zm0 71.4h108.1v35.7H254.3v-35.7zm0 71.4h108.1v35.7H254.3v-35.7z"/>
  <path fill="#E50914" d="M428.7 25.3h108.1v35.7H428.7V25.3zm0 71.4h108.1v35.7H428.7V96.7zm0 71.4h108.1v35.7H428.7v-35.7zm0 71.4h108.1v35.7H428.7v-35.7z"/>
  <path fill="#E50914" d="M603.1 25.3h108.1v35.7H603.1V25.3zm0 71.4h108.1v35.7H603.1V96.7zm0 71.4h108.1v35.7H603.1v-35.7zm0 71.4h108.1v35.7H603.1v-35.7z"/>
  <path fill="#E50914" d="M777.5 25.3h108.1v35.7H777.5V25.3zm0 71.4h108.1v35.7H777.5V96.7zm0 71.4h108.1v35.7H777.5v-35.7zm0 71.4h108.1v35.7H777.5v-35.7z"/>
  <path fill="#E50914" d="M951.9 25.3H1024v35.7h-72.1V25.3zm0 71.4H1024v35.7h-72.1V96.7zm0 71.4H1024v35.7h-72.1v-35.7zm0 71.4H1024v35.7h-72.1v-35.7z"/>
</svg>
