<svg xmlns="http://www.w3.org/2000/svg" viewBox="0 0 512 356">
  <path fill="#00A1E0" d="M182.7 147.5c8.1-14.6 23.4-24.5 41.1-24.5 17.4 0 32.5 9.5 40.7 23.7 10.1-4.2 21.1-6.5 32.7-6.5 47.5 0 86 38.5 86 86s-38.5 86-86 86c-11.6 0-22.6-2.3-32.7-6.5-8.2 14.2-23.3 23.7-40.7 23.7-17.7 0-33-9.9-41.1-24.5-9.4 3.9-19.7 6.1-30.5 6.1-47.5 0-86-38.5-86-86 0-10.8 2.2-21.1 6.1-30.5-14.6-8.1-24.5-23.4-24.5-41.1 0-26 21-47 47-47 17.7 0 33 9.9 41.1 24.5 9.4-3.9 19.7-6.1 30.5-6.1 10.8 0 21.1 2.2 30.5 6.1z"/>
</svg>
