<svg xmlns="http://www.w3.org/2000/svg" viewBox="0 0 512 512">
  <path fill="#95BF47" d="M388.3 104.5c-0.8-0.4-1.6-0.4-2.4-0.4-0.8 0-14.4-1.2-14.4-1.2s-11.6-11.2-12.8-12.4c-1.2-1.2-3.6-0.8-4.4-0.4-0.4 0-2.4 0.8-6 2-1.2-3.6-3.2-7.6-5.6-11.6-7.6-12-18.8-18.4-32.4-18.4-0.4 0-0.8 0-1.2 0-0.4-0.4-0.8-0.8-1.2-1.2-6-6-13.6-8.8-22.8-8.8-17.6 0-35.2 13.2-49.6 36-10 15.6-17.6 35.2-19.6 52.8-16.8 5.2-28.4 8.8-28.8 9.2-8.4 2.8-8.8 3.2-9.6 11.2-0.8 6-20.8 160.4-20.8 160.4l155.2 26.8 75.6-18.8c0 0-28.4-191.6-29.2-195.2zm-54 5.6c-6.4 2-13.6 4-21.2 6.4 2-7.6 6-15.2 10.8-20.4 1.6-1.6 3.6-3.6 5.6-4.8 3.2 5.2 4.8 12 4.8 18.8zm-16.8-36c2.4 0 4.4 0.4 6.4 1.2-2.4 1.6-4.8 3.6-7.2 6-7.2 7.6-12.8 19.6-14.8 31.2-6 1.6-11.6 3.6-17.2 5.2 4.8-18.4 18.4-42.8 32.8-43.6zm-4.8 96.8c-1.6 0-12-2.8-26.4-4.8 0 0 8.8-36.4 12.4-50.4 0.4-1.6 0.8-2.8 1.2-3.6 8.8 1.6 32.4 6.4 38.4 8.8-2.4 16.4-12.8 42.8-25.6 50zm12-60c-6-2-16.4-5.2-26-7.6 2.4-9.2 7.2-18.4 12.8-24.4 2.4-2.4 5.6-5.2 9.2-7.2 4.4 8.4 4.4 27.2 4 39.2z"/>
  <path fill="#5E8E3E" d="M385.9 104.1c-0.8 0-14.4-1.2-14.4-1.2s-11.6-11.2-12.8-12.4c-0.4-0.4-1.2-0.8-1.6-0.8l-13.2 322.8 75.6-18.8c0 0-28.4-191.6-29.2-195.2-0.8-0.4-1.6-0.4-2.4-0.4-0.8 0-1.6 0-2 6z"/>
  <path fill="#FFF" d="M309.1 166.5l-9.2 34.8s-10.4-4.8-22.8-4.8c-18.4 0-19.2 11.6-19.2 14.4 0 15.6 41.2 21.6 41.2 58.4 0 28.8-18.4 47.6-43.2 47.6-29.6 0-44.8-18.4-44.8-18.4l8-26.8s15.6 13.6 28.8 13.6c8.8 0 12.4-6.8 12.4-11.6 0-20.4-33.6-21.2-33.6-55.2 0-28.4 20.4-55.6 61.6-55.6 16 0 20.8 3.6 20.8 3.6z"/>
</svg>
